<svg width="18" height="18" viewBox="0 0 18 18" fill="none" xmlns="http://www.w3.org/2000/svg">
<path d="M6.6709 3.96967C6.96379 3.67678 7.43855 3.67678 7.73145 3.96967C8.02425 4.26257 8.02431 4.73735 7.73145 5.03022L4.51172 8.24996H15.3008C15.715 8.24996 16.0508 8.58574 16.0508 8.99996C16.0508 9.41415 15.715 9.74996 15.3008 9.74996H4.51172L7.73145 12.9697C8.02425 13.2626 8.02431 13.7374 7.73145 14.0302C7.43858 14.3231 6.96379 14.323 6.6709 14.0302L2.1709 9.53023C2.13891 9.49824 2.11094 9.46355 2.08594 9.42769C2.05521 9.38359 2.0286 9.33641 2.00781 9.28609C1.98707 9.23581 1.97223 9.18371 1.96289 9.13082C1.9554 9.08831 1.95118 9.04462 1.95117 8.99996C1.95117 8.95465 1.95519 8.91023 1.96289 8.86714C1.97198 8.81631 1.98622 8.76617 2.00586 8.71773L2.00977 8.70796C2.02135 8.68057 2.03713 8.65546 2.05176 8.62984C2.0842 8.57299 2.12238 8.5182 2.1709 8.46968L6.6709 3.96967Z" fill="#191E28"/>
</svg>
