<svg width="18" height="18" viewBox="0 0 18 18" fill="none" xmlns="http://www.w3.org/2000/svg">
<path d="M8.59435 1.51148C9.09391 1.48434 9.46915 1.78355 9.63732 2.1355C9.79833 2.47282 9.79619 2.89957 9.57189 3.25855L9.57286 3.25953C9.12342 3.97862 8.93101 4.82908 9.02696 5.67163C9.12292 6.51418 9.50156 7.29955 10.1012 7.89917C10.7007 8.49855 11.4855 8.87737 12.3277 8.97339C13.1702 9.06934 14.0208 8.87684 14.7399 8.42749L14.8776 8.35328C15.2038 8.20517 15.5678 8.22112 15.8639 8.36206C16.2167 8.53021 16.5157 8.90531 16.4889 9.40406C16.4108 10.8508 15.9151 12.2446 15.0621 13.4158C14.2092 14.5868 13.0351 15.4854 11.6822 16.0037C10.3293 16.5218 8.85511 16.6373 7.4381 16.3357C6.02097 16.034 4.72146 15.3279 3.69689 14.3035C2.67241 13.2791 1.9666 11.9802 1.66466 10.5632C1.36277 9.14614 1.47765 7.67123 1.99571 6.31812C2.51381 4.96519 3.41263 3.79127 4.58361 2.93824C5.75464 2.08517 7.14766 1.58977 8.59435 1.51148ZM7.96642 3.0896C7.06617 3.24697 6.21017 3.60834 5.46642 4.15015C4.52954 4.83265 3.81056 5.77274 3.39611 6.85523C2.98178 7.93761 2.88997 9.1172 3.13146 10.2507C3.37301 11.3843 3.93786 12.4234 4.75743 13.2429C5.577 14.0624 6.61609 14.6275 7.74962 14.8689C8.88319 15.1103 10.0628 15.0177 11.1451 14.6033C12.2274 14.1888 13.1669 13.4697 13.8492 12.533C14.3909 11.7893 14.7515 10.9331 14.9088 10.033C14.0513 10.4193 13.1019 10.571 12.1588 10.4636C10.9793 10.3293 9.88008 9.79906 9.04064 8.95972C8.20121 8.1203 7.6711 7.02105 7.53673 5.84156C7.42928 4.898 7.57968 3.94743 7.96642 3.0896Z" fill="black"/>
</svg>
