<svg width="18" height="18" viewBox="0 0 18 18" fill="none" xmlns="http://www.w3.org/2000/svg">
<path d="M10.8018 2.69922C12.2928 2.69932 13.5018 3.9084 13.502 5.39941V12.5996C13.502 14.0907 12.2928 15.2997 10.8018 15.2998H7.20117C5.71018 15.2996 4.50195 14.0906 4.50195 12.5996V5.39941C4.50206 3.90847 5.71025 2.69943 7.20117 2.69922H10.8018ZM2.70117 4.5C3.19823 4.5 3.60156 4.90333 3.60156 5.40039V12.6006C3.60146 13.0976 3.19816 13.5 2.70117 13.5C2.20418 13.5 1.80089 13.0976 1.80078 12.6006V5.40039C1.80078 4.90333 2.20412 4.5 2.70117 4.5ZM7.20117 4.5C6.70436 4.50021 6.30186 4.90258 6.30176 5.39941V12.5996C6.30176 13.0965 6.7043 13.4998 7.20117 13.5H10.8018C11.2987 13.4999 11.7012 13.0966 11.7012 12.5996V5.39941C11.7011 4.90251 11.2987 4.50011 10.8018 4.5H7.20117ZM15.3008 4.5C15.7978 4.5 16.2012 4.90333 16.2012 5.40039V12.6006C16.2011 13.0976 15.7978 13.5 15.3008 13.5C14.8038 13.5 14.4005 13.0976 14.4004 12.6006V5.40039C14.4004 4.90333 14.8037 4.5 15.3008 4.5Z" fill="#212121"/>
</svg>
