<svg width="18" height="18" viewBox="0 0 18 18" fill="none" xmlns="http://www.w3.org/2000/svg">
<path d="M3.59961 6.29922H6.29961C6.79641 6.29922 7.19961 5.89602 7.19961 5.39922V2.69922" fill="#212121"/>
<path d="M11.7002 2.02539C13.5643 2.02539 15.0752 3.5363 15.0752 5.40039V12.6006C15.075 14.4645 13.5642 15.9756 11.7002 15.9756H6.30078C4.43682 15.9756 2.92599 14.4645 2.92578 12.6006V6.67285C2.92578 6.25553 3.0911 5.85536 3.38672 5.55957L6.45996 2.48633C6.756 2.18956 7.15755 2.02539 7.57324 2.02539H11.7002ZM7.875 5.39941C7.87489 6.26885 7.16924 6.9745 6.2998 6.97461H4.27539V12.6006C4.2756 13.7189 5.1824 14.625 6.30078 14.625H11.7002C12.8186 14.625 13.7254 13.7189 13.7256 12.6006V5.40039C13.7256 4.28188 12.8187 3.375 11.7002 3.375H7.875V5.39941ZM11.9248 11.9258C12.2976 11.9258 12.6006 12.2278 12.6006 12.6006C12.6006 12.9734 12.2976 13.2754 11.9248 13.2754H6.0752C5.7024 13.2754 5.40039 12.9734 5.40039 12.6006C5.40039 12.2278 5.7024 11.9258 6.0752 11.9258H11.9248ZM11.9248 9.22461C12.2976 9.22461 12.6006 9.52662 12.6006 9.89941C12.6006 10.2722 12.2976 10.5742 11.9248 10.5742H6.0752C5.7024 10.5742 5.40039 10.2722 5.40039 9.89941C5.40039 9.52662 5.7024 9.22461 6.0752 9.22461H11.9248ZM11.9238 6.52539C12.2966 6.52539 12.5986 6.8274 12.5986 7.2002C12.5986 7.57299 12.2966 7.875 11.9238 7.875H10.124C9.75123 7.875 9.44922 7.57299 9.44922 7.2002C9.44922 6.8274 9.75123 6.52539 10.124 6.52539H11.9238Z" fill="#212121"/>
</svg>
