<svg width="18" height="18" viewBox="0 0 18 18" fill="none" xmlns="http://www.w3.org/2000/svg">
<path d="M9.00138 9.90036C11.621 9.9006 13.9138 11.3012 15.1722 13.3896C15.4286 13.8152 15.2909 14.3683 14.8656 14.625C14.44 14.8814 13.8869 14.7447 13.6303 14.3193C12.6839 12.7487 10.9639 11.7014 9.00138 11.7011C7.0386 11.7011 5.31802 12.7486 4.37152 14.3193C4.11492 14.7446 3.56175 14.8812 3.13618 14.625C2.71076 14.3683 2.57407 13.8152 2.83051 13.3896C4.08909 11.3013 6.38166 9.90036 9.00138 9.90036ZM9.0004 1.80078C10.9885 1.80089 12.6 3.4132 12.6 5.40136C12.5999 7.38942 10.9885 9.00085 9.0004 9.00095C7.01238 9.00081 5.39994 7.3894 5.39984 5.40136C5.39984 3.41323 7.01231 1.80092 9.0004 1.80078ZM9.0004 3.60156C8.00642 3.6017 7.20061 4.40733 7.20061 5.40136C7.20072 6.39529 8.00648 7.20101 9.0004 7.20115C9.99436 7.20105 10.8001 6.39531 10.8002 5.40136C10.8002 4.40731 9.99442 3.60166 9.0004 3.60156Z" fill="#212121"/>
</svg>
